<svg width="15" height="15" viewBox="0 0 15 15" fill="none" xmlns="http://www.w3.org/2000/svg">
<path fill-rule="evenodd" clip-rule="evenodd" d="M3.26923 8.46154C6.39923 8.46154 6.53846 9.52308 6.53846 11.7308C6.53846 12.8369 6.53846 13.6238 6.07385 14.2C5.53923 14.8638 4.56615 15 3.26923 15C1.97231 15 0.999231 14.8638 0.464615 14.2C0 13.6238 0 12.8377 0 11.75L0.576923 11.7308H0C0 9.52308 0.139231 8.46154 3.26923 8.46154ZM11.7308 8.46154C14.8608 8.46154 15 9.52308 15 11.7308C15 12.8369 15 13.6238 14.5354 14.2C14.0008 14.8638 13.0277 15 11.7308 15C10.4338 15 9.46077 14.8638 8.92615 14.2C8.46154 13.6238 8.46154 12.8377 8.46154 11.75L9.03846 11.7308H8.46154C8.46154 9.52308 8.60077 8.46154 11.7308 8.46154ZM3.42782 9.61573L3.26923 9.61539C1.26233 9.61539 1.15941 9.75939 1.15413 11.4439L1.15445 12.1001C1.1581 12.7701 1.18363 13.2541 1.36231 13.4769C1.56615 13.7292 2.17154 13.8462 3.26923 13.8462C4.36692 13.8462 4.97231 13.7285 5.17615 13.4762C5.38462 13.2169 5.38462 12.6015 5.38462 11.7492C5.38462 9.826 5.38462 9.62478 3.42782 9.61573ZM11.8894 9.61573L11.7308 9.61539C9.72387 9.61539 9.62095 9.75939 9.61567 11.4439L9.61599 12.1001C9.61964 12.7701 9.64516 13.2541 9.82385 13.4769C10.0277 13.7292 10.6331 13.8462 11.7308 13.8462C12.8285 13.8462 13.4338 13.7285 13.6377 13.4762C13.8462 13.2169 13.8462 12.6015 13.8462 11.7492C13.8462 9.826 13.8462 9.62478 11.8894 9.61573ZM3.26923 0C6.39923 0 6.53846 1.06154 6.53846 3.26923C6.53846 4.37538 6.53846 5.16231 6.07385 5.73846C5.53923 6.40231 4.56615 6.53846 3.26923 6.53846C1.97231 6.53846 0.999231 6.40231 0.464615 5.73846C0 5.16231 0 4.37615 0 3.28846L0.576923 3.26923H0C0 1.06154 0.139231 0 3.26923 0ZM11.7308 0C14.8608 0 15 1.06154 15 3.26923C15 4.37538 15 5.16231 14.5354 5.73846C14.0008 6.40231 13.0277 6.53846 11.7308 6.53846C10.4338 6.53846 9.46077 6.40231 8.92615 5.73846C8.46154 5.16231 8.46154 4.37615 8.46154 3.28846L9.03846 3.26923H8.46154C8.46154 1.06154 8.60077 0 11.7308 0ZM3.42782 1.15419L3.26923 1.15385C1.26233 1.15385 1.15941 1.29786 1.15413 2.98235L1.15445 3.6386C1.1581 4.30857 1.18363 4.79253 1.36231 5.01538C1.56615 5.26769 2.17154 5.38462 3.26923 5.38462C4.36692 5.38462 4.97231 5.26692 5.17615 5.01462C5.38462 4.75538 5.38462 4.14 5.38462 3.28769C5.38462 1.36446 5.38462 1.16324 3.42782 1.15419ZM11.8894 1.15419L11.7308 1.15385C9.72387 1.15385 9.62095 1.29786 9.61567 2.98235L9.61599 3.6386C9.61964 4.30857 9.64516 4.79253 9.82385 5.01538C10.0277 5.26769 10.6331 5.38462 11.7308 5.38462C12.8285 5.38462 13.4338 5.26692 13.6377 5.01462C13.8462 4.75538 13.8462 4.14 13.8462 3.28769C13.8462 1.36446 13.8462 1.16324 11.8894 1.15419Z" fill="#C7C7C7"/>
</svg>
