<svg width="188" height="177" viewBox="0 0 188 177" fill="none" xmlns="http://www.w3.org/2000/svg">
<path d="M89.0077 7.48846C91.2655 4.1017 92.3944 2.40833 94 2.40833C95.6056 2.40833 96.7345 4.1017 98.9923 7.48845L103.967 14.9503C105.411 17.117 106.134 18.2004 107.201 18.501C107.433 18.5663 107.673 18.6035 107.914 18.6116C109.022 18.6489 110.039 17.8355 112.072 16.2087V16.2087C116.635 12.5585 118.917 10.7334 120.526 11.3563C120.858 11.4847 121.164 11.6712 121.431 11.9069C122.723 13.0502 122.15 15.9151 121.004 21.6448L118.298 35.1767C117.836 37.4856 117.605 38.6401 116.776 39.32C115.946 40 114.769 40 112.415 40H75.5855C73.2309 40 72.0535 40 71.2241 39.32C70.3947 38.6401 70.1638 37.4856 69.702 35.1767L66.9956 21.6448C65.8497 15.9151 65.2767 13.0502 66.5693 11.9069C66.8359 11.6712 67.1422 11.4847 67.4741 11.3563C69.0835 10.7334 71.3648 12.5585 75.9276 16.2087V16.2087C77.961 17.8355 78.9777 18.6489 80.0864 18.6116C80.3274 18.6035 80.5665 18.5663 80.7986 18.501C81.8664 18.2004 82.5887 17.117 84.0331 14.9503L89.0077 7.48846Z" fill="black"/>
<path d="M28.7397 101.198C39.072 101.198 47.4724 92.7977 47.4724 82.4654C47.4724 72.1331 39.072 63.7327 28.7397 63.7327C18.4074 63.7327 10.007 72.1331 10.007 82.4654C10.007 92.7977 18.4074 101.198 28.7397 101.198ZM159.869 101.198C170.201 101.198 178.601 92.7977 178.601 82.4654C178.601 72.1331 170.201 63.7327 159.869 63.7327C149.536 63.7327 141.136 72.1331 141.136 82.4654C141.136 92.7977 149.536 101.198 159.869 101.198ZM169.235 110.565H150.502C145.351 110.565 140.697 112.643 137.302 116.009C149.097 122.477 157.469 134.156 159.283 148.03H178.601C183.782 148.03 187.968 143.844 187.968 138.664V129.297C187.968 118.965 179.567 110.565 169.235 110.565ZM94.3042 110.565C112.422 110.565 127.086 95.9003 127.086 77.7822C127.086 59.6642 112.422 45 94.3042 45C76.1862 45 61.522 59.6642 61.522 77.7822C61.522 95.9003 76.1862 110.565 94.3042 110.565ZM116.783 119.931H114.354C108.266 122.858 101.505 124.614 94.3042 124.614C87.1038 124.614 80.3718 122.858 74.2544 119.931H71.825C53.2093 119.931 38.1061 135.034 38.1061 153.65V162.079C38.1061 169.836 44.3991 176.129 52.1556 176.129H136.453C144.209 176.129 150.502 169.836 150.502 162.079V153.65C150.502 135.034 135.399 119.931 116.783 119.931ZM51.3068 116.009C47.9115 112.643 43.2576 110.565 38.1061 110.565H19.3733C9.04108 110.565 0.640625 118.965 0.640625 129.297V138.664C0.640625 143.844 4.82622 148.03 10.007 148.03H29.2958C31.1398 134.156 39.511 122.477 51.3068 116.009Z" fill="black"/>
</svg>
