<svg width="188" height="132" viewBox="0 0 188 132" fill="none" xmlns="http://www.w3.org/2000/svg">
<path d="M28.7397 57.0691C39.072 57.0691 47.4724 48.6687 47.4724 38.3364C47.4724 28.0041 39.072 19.6037 28.7397 19.6037C18.4074 19.6037 10.007 28.0041 10.007 38.3364C10.007 48.6687 18.4074 57.0691 28.7397 57.0691ZM159.869 57.0691C170.201 57.0691 178.601 48.6687 178.601 38.3364C178.601 28.0041 170.201 19.6037 159.869 19.6037C149.536 19.6037 141.136 28.0041 141.136 38.3364C141.136 48.6687 149.536 57.0691 159.869 57.0691ZM169.235 66.4355H150.502C145.351 66.4355 140.697 68.5136 137.302 71.8797C149.097 78.3483 157.469 90.027 159.283 103.901H178.601C183.782 103.901 187.968 99.7153 187.968 94.5346V85.1682C187.968 74.8359 179.567 66.4355 169.235 66.4355ZM94.3042 66.4355C112.422 66.4355 127.086 51.7713 127.086 33.6532C127.086 15.5352 112.422 0.870968 94.3042 0.870968C76.1862 0.870968 61.522 15.5352 61.522 33.6532C61.522 51.7713 76.1862 66.4355 94.3042 66.4355ZM116.783 75.8018H114.354C108.266 78.7288 101.505 80.485 94.3042 80.485C87.1038 80.485 80.3718 78.7288 74.2544 75.8018H71.825C53.2093 75.8018 38.1061 90.9051 38.1061 109.521V117.95C38.1061 125.707 44.3991 132 52.1556 132H136.453C144.209 132 150.502 125.707 150.502 117.95V109.521C150.502 90.9051 135.399 75.8018 116.783 75.8018ZM51.3068 71.8797C47.9115 68.5136 43.2576 66.4355 38.1061 66.4355H19.3733C9.04108 66.4355 0.640625 74.8359 0.640625 85.1682V94.5346C0.640625 99.7153 4.82622 103.901 10.007 103.901H29.2958C31.1398 90.027 39.511 78.3483 51.3068 71.8797Z" fill="black"/>
</svg>
