<svg width="162" height="162" viewBox="0 0 162 162" fill="none" xmlns="http://www.w3.org/2000/svg">
<path d="M6 36C6 19.4314 19.4314 6 36 6H126C142.568 6 156 19.4314 156 36V126C156 142.568 142.568 156 126 156H36C19.4314 156 6 142.568 6 126V36Z" stroke="black" stroke-width="12" stroke-linecap="round" stroke-linejoin="round"/>
<path d="M54.75 73.5C65.1053 73.5 73.5 65.1053 73.5 54.75C73.5 44.3947 65.1053 36 54.75 36C44.3947 36 36 44.3947 36 54.75C36 65.1053 44.3947 73.5 54.75 73.5Z" stroke="black" stroke-width="12" stroke-linecap="round" stroke-linejoin="round"/>
<path d="M99.9465 85.6583L36 156H128.031C143.478 156 156 143.478 156 128.031C156 124.532 154.688 121.16 152.324 118.581L122.103 85.6125C116.141 79.1093 105.882 79.1303 99.9465 85.6583Z" stroke="black" stroke-width="12" stroke-linecap="round" stroke-linejoin="round"/>
</svg>
