<svg width="295" height="309" viewBox="0 0 295 309" fill="none" xmlns="http://www.w3.org/2000/svg">
<path d="M7 81.9429L142.994 142.385L152.199 121.673L16.2053 61.2307L7 81.9429ZM158.93 298.244V132.029H136.264V298.244H158.93ZM152.199 142.385L288.194 81.9429L278.988 61.2307L142.994 121.673L152.199 142.385Z" fill="black"/>
<path d="M11.6035 231.91V77.4787C11.6035 73.8958 13.7135 70.649 16.9877 69.1939L143.915 12.7814C146.26 11.7395 148.935 11.7395 151.28 12.7814L278.208 69.1939C281.482 70.649 283.592 73.8958 283.592 77.4787V231.91C283.592 235.493 281.482 238.74 278.208 240.195L151.28 296.607C148.935 297.648 146.26 297.648 143.915 296.607L16.9877 240.195C13.7135 238.74 11.6035 235.493 11.6035 231.91Z" stroke="black" stroke-width="22.6657" stroke-linecap="round" stroke-linejoin="round"/>
<path d="M79.6006 41.3657L210.211 99.4147C213.485 100.87 215.595 104.117 215.595 107.699V162.249" stroke="black" stroke-width="22.6657" stroke-linecap="round" stroke-linejoin="round"/>
</svg>
