<svg version="1.0" xmlns="http://www.w3.org/2000/svg"
 width="305.000000pt" height="256.000000pt" viewBox="0 0 305.000000 256.000000"
 preserveAspectRatio="xMidYMid meet">

<g transform="translate(0.000000,256.000000) scale(0.100000,-0.100000)"
fill="#000000" stroke="none">
<path d="M1124 2545 c-214 -46 -402 -229 -459 -445 -20 -73 -19 -236 1 -314
42 -163 172 -321 325 -394 106 -51 182 -66 307 -60 163 8 286 64 403 183 185
188 229 465 112 704 -52 105 -169 223 -273 274 -128 63 -279 82 -416 52z"/>
<path d="M2507 2079 l-27 -20 -2 -182 -3 -182 -183 -5 c-178 -5 -184 -6 -203
-29 -21 -26 -24 -68 -6 -92 26 -34 54 -39 226 -39 l171 0 0 -180 c0 -167 1
-181 20 -200 31 -31 93 -27 119 6 19 25 21 40 21 200 l0 174 175 0 c173 0 176
0 200 25 33 32 34 83 2 113 -22 21 -32 22 -200 22 l-177 0 0 176 0 176 -29 29
c-35 34 -68 37 -104 8z"/>
<path d="M630 1301 c-136 -44 -229 -123 -297 -256 -99 -191 -149 -525 -108
-719 34 -161 153 -275 324 -312 97 -20 1365 -20 1462 0 88 19 141 47 207 110
96 91 125 174 124 356 -3 374 -119 665 -308 776 -61 36 -159 64 -222 64 -56 0
-101 -18 -180 -72 -66 -45 -180 -95 -249 -108 -83 -16 -202 -8 -283 19 -61 21
-90 36 -234 125 -52 31 -68 36 -120 35 -34 0 -86 -8 -116 -18z"/>
</g>
</svg>
