<svg width="26" height="28" viewBox="0 0 26 28" fill="none" xmlns="http://www.w3.org/2000/svg">
<path fill-rule="evenodd" clip-rule="evenodd" d="M13.8424 0C14.8077 0 15.7461 0.397278 16.4188 1.08779C17.0902 1.78235 17.461 2.735 17.4327 3.70117C17.4354 3.91873 17.5068 4.17007 17.6362 4.39033C17.8506 4.75518 18.189 5.01192 18.5908 5.11732C18.9925 5.21732 19.4132 5.16326 19.7704 4.95111C21.4961 3.96332 23.6924 4.55518 24.6779 6.27132L25.5178 7.72936C25.5394 7.76854 25.5583 7.80638 25.5744 7.84557C26.4669 9.53603 25.871 11.6643 24.2128 12.6359C23.9714 12.7751 23.7759 12.9696 23.6411 13.2048C23.4322 13.5683 23.3742 14.0007 23.4793 14.398C23.5872 14.8033 23.8447 15.1398 24.2074 15.3479C25.0257 15.8195 25.6365 16.6141 25.8805 17.5316C26.1245 18.4478 25.991 19.4423 25.5151 20.2625L24.6199 21.7571C23.6344 23.4543 21.4382 24.0421 19.73 23.0529C19.5021 22.9219 19.2392 22.8502 18.9777 22.8435H18.9696C18.58 22.8435 18.1796 23.0097 17.8884 23.3002C17.5931 23.5962 17.4313 23.9907 17.434 24.4096C17.4246 26.3947 15.8135 28 13.8424 28H12.1531C10.1726 28 8.5615 26.3866 8.5615 24.4015C8.55881 24.1569 8.4887 23.9029 8.35792 23.6826C8.14626 23.3124 7.80381 23.0475 7.40879 22.9421C7.01647 22.8367 6.58639 22.8948 6.23316 23.1002C5.38649 23.5732 4.39017 23.688 3.47879 23.4313C2.56875 23.1732 1.78275 22.5462 1.32167 21.7152L0.479042 20.2598C-0.506492 18.5464 0.0799749 16.3506 1.7868 15.3614C2.2708 15.0817 2.57145 14.5601 2.57145 14.0007C2.57145 13.4412 2.2708 12.9183 1.7868 12.6386C0.0786268 11.644 -0.506492 9.44279 0.477694 7.72936L1.39177 6.22538C2.36383 4.53086 4.56139 3.93359 6.27495 4.92003C6.50819 5.05922 6.76166 5.12948 7.01916 5.13218C7.85909 5.13218 8.5615 4.43762 8.57498 3.58361C8.56959 2.64176 8.94035 1.73775 9.61579 1.05535C10.2939 0.374306 11.1945 0 12.1531 0H13.8424ZM13.8424 2.02693H12.1531C11.7352 2.02693 11.3442 2.19043 11.0489 2.48501C10.755 2.78095 10.5946 3.17417 10.5973 3.59307C10.569 5.56865 8.95787 7.15911 7.00703 7.15911C6.38146 7.15236 5.77882 6.98345 5.25572 6.66995C4.52095 6.25105 3.56103 6.50914 3.13095 7.25911L2.21822 8.76309C1.80028 9.49008 2.05644 10.4508 2.80064 10.8846C3.90482 11.5251 4.59375 12.7197 4.59375 14.0007C4.59375 15.2817 3.90482 16.4749 2.79795 17.1167C2.05778 17.5464 1.80163 18.5018 2.23035 19.245L3.08107 20.7152C3.29139 21.0949 3.63518 21.3692 4.0329 21.4814C4.42927 21.5922 4.86609 21.5449 5.2301 21.3422C5.76534 21.0274 6.3882 20.8639 7.01377 20.8639C7.32251 20.8639 7.63124 20.903 7.93324 20.9841C8.84462 21.2301 9.63602 21.8408 10.1052 22.6611C10.4099 23.1759 10.5784 23.7772 10.5838 24.3907C10.5838 25.2691 11.2876 25.9731 12.1531 25.9731H13.8424C14.7039 25.9731 15.4077 25.2731 15.4117 24.4096C15.4063 23.4556 15.7784 22.5489 16.4593 21.8665C17.1307 21.1936 18.069 20.7895 19.0074 20.8166C19.6221 20.8314 20.214 20.9976 20.7358 21.2949C21.4867 21.726 22.4453 21.4692 22.8794 20.726L23.7746 19.2302C23.9741 18.8856 24.0321 18.4532 23.9256 18.0545C23.8204 17.6559 23.5562 17.31 23.2003 17.1059C22.3671 16.6249 21.7725 15.8492 21.5258 14.9195C21.2818 14.0074 21.4152 13.0115 21.8912 12.1913C22.2012 11.6508 22.6556 11.1954 23.2003 10.8819C23.931 10.4535 24.1871 9.49549 23.7625 8.74958C23.7449 8.71985 23.7288 8.68877 23.7153 8.65634L22.9252 7.28343C22.4952 6.53347 21.5379 6.27537 20.787 6.70373C19.9754 7.18479 19.0101 7.32262 18.0825 7.07804C17.1563 6.83751 16.3797 6.2497 15.8957 5.42001C15.5856 4.90111 15.4171 4.29709 15.4117 3.68225C15.4238 3.22011 15.2621 2.80527 14.9682 2.50123C14.6756 2.19854 14.2644 2.02693 13.8424 2.02693ZM13.0037 9.424C15.5208 9.424 17.5687 11.478 17.5687 14.0008C17.5687 16.5237 15.5208 18.5749 13.0037 18.5749C10.4866 18.5749 8.43868 16.5237 8.43868 14.0008C8.43868 11.478 10.4866 9.424 13.0037 9.424ZM13.0037 11.4509C11.6016 11.4509 10.461 12.5955 10.461 14.0008C10.461 15.4061 11.6016 16.548 13.0037 16.548C14.4058 16.548 15.5464 15.4061 15.5464 14.0008C15.5464 12.5955 14.4058 11.4509 13.0037 11.4509Z" fill="white" fill-opacity="0.5"/>
</svg>
