<svg version="1.0" xmlns="http://www.w3.org/2000/svg"
 width="512.000000pt" height="512.000000pt" viewBox="0 0 512.000000 512.000000"
 preserveAspectRatio="xMidYMid meet">

<g transform="translate(0.000000,512.000000) scale(0.100000,-0.100000)"
fill="#000000" stroke="none">
<path d="M2045 4673 c-133 -70 -166 -233 -67 -336 62 -66 -5 -61 1002 -67
l915 -5 41 -22 c51 -27 90 -72 104 -121 8 -26 10 -505 8 -1584 l-3 -1546 -30
-44 c-17 -23 -51 -54 -75 -68 l-45 -25 -915 -5 c-1007 -6 -940 -1 -1002 -67
-98 -103 -67 -267 64 -334 36 -18 71 -19 960 -19 1025 0 986 -2 1128 68 110
54 223 168 279 282 75 154 71 45 71 1780 0 1735 4 1626 -71 1780 -56 114 -169
228 -279 282 -142 70 -102 68 -1130 67 -823 0 -928 -2 -955 -16z"/>
<path d="M2288 3618 c-21 -5 -58 -28 -83 -50 -73 -64 -91 -164 -48 -253 9 -16
130 -146 271 -287 l256 -258 -942 0 c-908 0 -944 -1 -980 -19 -162 -83 -162
-299 0 -382 36 -18 72 -19 980 -19 l942 0 -256 -257 c-141 -142 -262 -271
-271 -288 -42 -87 -27 -176 43 -245 74 -75 165 -87 255 -35 61 36 921 902 939
947 20 48 20 128 0 176 -18 45 -877 911 -939 947 -48 28 -116 38 -167 23z"/>
</g>
</svg>
