<svg width="187" height="93" viewBox="0 0 187 93" fill="none" xmlns="http://www.w3.org/2000/svg">
<path d="M8 85.2903V27.3226C8 22.1979 10.0358 17.2831 13.6595 13.6595C17.2831 10.0358 22.1979 8 27.3226 8C32.4472 8 37.362 10.0358 40.9857 13.6595C44.6094 17.2831 46.6451 22.1979 46.6451 27.3226V85.2903" stroke="black" stroke-width="15" stroke-linecap="round" stroke-linejoin="round"/>
<path d="M8 56.3064H46.6451" stroke="black" stroke-width="15" stroke-linecap="round" stroke-linejoin="round"/>
<path d="M75.6289 8V65.9677M75.6289 65.9677C75.6289 71.0924 77.6647 76.0072 81.2884 79.6308C84.912 83.2545 89.8268 85.2903 94.9515 85.2903C100.076 85.2903 104.991 83.2545 108.615 79.6308C112.238 76.0072 114.274 71.0924 114.274 65.9677V56.3064C114.274 51.1818 112.238 46.267 108.615 42.6433C104.991 39.0196 100.076 36.9839 94.9515 36.9839C89.8268 36.9839 84.912 39.0196 81.2884 42.6433C77.6647 46.267 75.6289 51.1818 75.6289 56.3064V65.9677Z" stroke="black" stroke-width="15" stroke-linecap="round" stroke-linejoin="round"/>
<path d="M179.314 46.6452C177.187 42.9617 173.904 40.083 169.974 38.4554C166.045 36.8278 161.688 36.5423 157.579 37.6431C153.471 38.744 149.84 41.1697 147.251 44.5441C144.662 47.9185 143.258 52.053 143.258 56.3064V65.9677C143.259 70.211 144.656 74.336 147.235 77.7059C149.813 81.0758 153.43 83.5032 157.525 84.6133C161.621 85.7235 165.968 85.4547 169.895 83.8483C173.823 82.242 177.112 79.3876 179.256 75.7256" stroke="black" stroke-width="15" stroke-linecap="round" stroke-linejoin="round"/>
</svg>
